<mxfile host="app.diagrams.net" modified="2024-03-01T20:39:23.879Z" agent="Mozilla/5.0 (Windows NT 10.0; Win64; x64) AppleWebKit/537.36 (KHTML, like Gecko) Chrome/122.0.0.0 Safari/537.36 Edg/122.0.0.0" etag="MXFl92W4w2lwJHmai3Mk" version="23.1.5" type="github">
  <diagram name="PÃ¡gina-1" id="rT-OUrxsvLhbPKAnRwTP">
    <mxGraphModel dx="1542" dy="823" grid="1" gridSize="10" guides="1" tooltips="1" connect="1" arrows="1" fold="1" page="1" pageScale="1" pageWidth="827" pageHeight="1169" math="0" shadow="0">
      <root>
        <mxCell id="0" />
        <mxCell id="1" parent="0" />
        <mxCell id="Vl9ZQNTeKKNEjcf7K2NZ-36" style="edgeStyle=orthogonalEdgeStyle;rounded=0;orthogonalLoop=1;jettySize=auto;html=1;exitX=1;exitY=0.5;exitDx=0;exitDy=0;entryX=0;entryY=0.5;entryDx=0;entryDy=0;" edge="1" parent="1" source="Vl9ZQNTeKKNEjcf7K2NZ-1" target="Vl9ZQNTeKKNEjcf7K2NZ-13">
          <mxGeometry relative="1" as="geometry" />
        </mxCell>
        <mxCell id="Vl9ZQNTeKKNEjcf7K2NZ-1" value="CON_ACERVO" style="rounded=0;whiteSpace=wrap;html=1;" vertex="1" parent="1">
          <mxGeometry x="35" y="200" width="145" height="80" as="geometry" />
        </mxCell>
        <mxCell id="Vl9ZQNTeKKNEjcf7K2NZ-6" value="" style="rounded=0;whiteSpace=wrap;html=1;" vertex="1" parent="1">
          <mxGeometry x="19" y="214" width="51" height="16" as="geometry" />
        </mxCell>
        <mxCell id="Vl9ZQNTeKKNEjcf7K2NZ-13" value="" style="ellipse;whiteSpace=wrap;html=1;aspect=fixed;" vertex="1" parent="1">
          <mxGeometry x="255" y="220" width="40" height="40" as="geometry" />
        </mxCell>
        <mxCell id="Vl9ZQNTeKKNEjcf7K2NZ-16" value="&lt;font style=&quot;font-size: 10px;&quot;&gt;BUSCA NO BANCO DE DADOS&lt;/font&gt;&lt;div&gt;&lt;br&gt;&lt;/div&gt;" style="text;html=1;align=center;verticalAlign=middle;resizable=0;points=[];autosize=1;strokeColor=none;fillColor=none;" vertex="1" parent="1">
          <mxGeometry x="195" y="195" width="170" height="40" as="geometry" />
        </mxCell>
        <mxCell id="Vl9ZQNTeKKNEjcf7K2NZ-17" value="" style="rounded=0;whiteSpace=wrap;html=1;" vertex="1" parent="1">
          <mxGeometry x="19" y="250" width="51" height="16" as="geometry" />
        </mxCell>
        <mxCell id="Vl9ZQNTeKKNEjcf7K2NZ-18" value="LOGIN" style="rounded=0;whiteSpace=wrap;html=1;" vertex="1" parent="1">
          <mxGeometry x="426" y="310" width="145" height="80" as="geometry" />
        </mxCell>
        <mxCell id="Vl9ZQNTeKKNEjcf7K2NZ-19" value="" style="rounded=0;whiteSpace=wrap;html=1;" vertex="1" parent="1">
          <mxGeometry x="410" y="324" width="51" height="16" as="geometry" />
        </mxCell>
        <mxCell id="Vl9ZQNTeKKNEjcf7K2NZ-20" value="" style="rounded=0;whiteSpace=wrap;html=1;" vertex="1" parent="1">
          <mxGeometry x="410" y="360" width="51" height="16" as="geometry" />
        </mxCell>
        <mxCell id="Vl9ZQNTeKKNEjcf7K2NZ-21" value="" style="endArrow=classic;html=1;rounded=0;exitX=0;exitY=0.5;exitDx=0;exitDy=0;entryX=1;entryY=0.5;entryDx=0;entryDy=0;" edge="1" parent="1" source="Vl9ZQNTeKKNEjcf7K2NZ-18" target="Vl9ZQNTeKKNEjcf7K2NZ-13">
          <mxGeometry width="50" height="50" relative="1" as="geometry">
            <mxPoint x="250" y="290" as="sourcePoint" />
            <mxPoint x="300" y="240" as="targetPoint" />
          </mxGeometry>
        </mxCell>
        <mxCell id="Vl9ZQNTeKKNEjcf7K2NZ-30" style="edgeStyle=orthogonalEdgeStyle;rounded=0;orthogonalLoop=1;jettySize=auto;html=1;entryX=1;entryY=0.5;entryDx=0;entryDy=0;" edge="1" parent="1" source="Vl9ZQNTeKKNEjcf7K2NZ-23" target="Vl9ZQNTeKKNEjcf7K2NZ-26">
          <mxGeometry relative="1" as="geometry" />
        </mxCell>
        <mxCell id="Vl9ZQNTeKKNEjcf7K2NZ-23" value="CADASTRAR FUNC" style="rounded=0;whiteSpace=wrap;html=1;" vertex="1" parent="1">
          <mxGeometry x="890" y="310" width="151" height="80" as="geometry" />
        </mxCell>
        <mxCell id="Vl9ZQNTeKKNEjcf7K2NZ-24" value="" style="rounded=0;whiteSpace=wrap;html=1;" vertex="1" parent="1">
          <mxGeometry x="880" y="324" width="51" height="16" as="geometry" />
        </mxCell>
        <mxCell id="Vl9ZQNTeKKNEjcf7K2NZ-25" value="" style="rounded=0;whiteSpace=wrap;html=1;" vertex="1" parent="1">
          <mxGeometry x="880" y="360" width="51" height="16" as="geometry" />
        </mxCell>
        <mxCell id="Vl9ZQNTeKKNEjcf7K2NZ-26" value="" style="ellipse;whiteSpace=wrap;html=1;aspect=fixed;" vertex="1" parent="1">
          <mxGeometry x="717" y="331" width="40" height="40" as="geometry" />
        </mxCell>
        <mxCell id="Vl9ZQNTeKKNEjcf7K2NZ-27" value="&lt;font style=&quot;font-size: 10px;&quot;&gt;CADASTRO NO BANCO DE DADOS&lt;/font&gt;&lt;div&gt;&lt;br&gt;&lt;/div&gt;" style="text;html=1;align=center;verticalAlign=middle;resizable=0;points=[];autosize=1;strokeColor=none;fillColor=none;" vertex="1" parent="1">
          <mxGeometry x="647" y="306" width="190" height="40" as="geometry" />
        </mxCell>
        <mxCell id="Vl9ZQNTeKKNEjcf7K2NZ-28" value="" style="endArrow=none;html=1;rounded=0;entryX=0;entryY=0.5;entryDx=0;entryDy=0;exitX=1;exitY=0.5;exitDx=0;exitDy=0;" edge="1" parent="1" source="Vl9ZQNTeKKNEjcf7K2NZ-18" target="Vl9ZQNTeKKNEjcf7K2NZ-26">
          <mxGeometry width="50" height="50" relative="1" as="geometry">
            <mxPoint x="570" y="330" as="sourcePoint" />
            <mxPoint x="620" y="280" as="targetPoint" />
          </mxGeometry>
        </mxCell>
        <mxCell id="Vl9ZQNTeKKNEjcf7K2NZ-31" value="ADM" style="rounded=0;whiteSpace=wrap;html=1;" vertex="1" parent="1">
          <mxGeometry x="890" y="170" width="151" height="80" as="geometry" />
        </mxCell>
        <mxCell id="Vl9ZQNTeKKNEjcf7K2NZ-32" value="" style="rounded=0;whiteSpace=wrap;html=1;" vertex="1" parent="1">
          <mxGeometry x="880" y="184" width="51" height="16" as="geometry" />
        </mxCell>
        <mxCell id="Vl9ZQNTeKKNEjcf7K2NZ-33" value="" style="rounded=0;whiteSpace=wrap;html=1;" vertex="1" parent="1">
          <mxGeometry x="880" y="220" width="51" height="16" as="geometry" />
        </mxCell>
        <mxCell id="Vl9ZQNTeKKNEjcf7K2NZ-34" value="" style="endArrow=none;html=1;rounded=0;entryX=1;entryY=0.5;entryDx=0;entryDy=0;exitX=1;exitY=0.5;exitDx=0;exitDy=0;" edge="1" parent="1" source="Vl9ZQNTeKKNEjcf7K2NZ-23" target="Vl9ZQNTeKKNEjcf7K2NZ-31">
          <mxGeometry width="50" height="50" relative="1" as="geometry">
            <mxPoint x="680" y="370" as="sourcePoint" />
            <mxPoint x="730" y="320" as="targetPoint" />
            <Array as="points">
              <mxPoint x="1160" y="350" />
              <mxPoint x="1160" y="210" />
            </Array>
          </mxGeometry>
        </mxCell>
        <mxCell id="Vl9ZQNTeKKNEjcf7K2NZ-40" style="edgeStyle=orthogonalEdgeStyle;rounded=0;orthogonalLoop=1;jettySize=auto;html=1;entryX=0.5;entryY=1;entryDx=0;entryDy=0;" edge="1" parent="1" source="Vl9ZQNTeKKNEjcf7K2NZ-37" target="Vl9ZQNTeKKNEjcf7K2NZ-26">
          <mxGeometry relative="1" as="geometry" />
        </mxCell>
        <mxCell id="Vl9ZQNTeKKNEjcf7K2NZ-37" value="C_ITEM" style="rounded=0;whiteSpace=wrap;html=1;" vertex="1" parent="1">
          <mxGeometry x="766" y="505" width="145" height="80" as="geometry" />
        </mxCell>
        <mxCell id="Vl9ZQNTeKKNEjcf7K2NZ-38" value="" style="rounded=0;whiteSpace=wrap;html=1;" vertex="1" parent="1">
          <mxGeometry x="750" y="519" width="51" height="16" as="geometry" />
        </mxCell>
        <mxCell id="Vl9ZQNTeKKNEjcf7K2NZ-39" value="" style="rounded=0;whiteSpace=wrap;html=1;" vertex="1" parent="1">
          <mxGeometry x="750" y="555" width="51" height="16" as="geometry" />
        </mxCell>
        <mxCell id="Vl9ZQNTeKKNEjcf7K2NZ-45" style="edgeStyle=orthogonalEdgeStyle;rounded=0;orthogonalLoop=1;jettySize=auto;html=1;entryX=0;entryY=1;entryDx=0;entryDy=0;" edge="1" parent="1" source="Vl9ZQNTeKKNEjcf7K2NZ-41" target="Vl9ZQNTeKKNEjcf7K2NZ-26">
          <mxGeometry relative="1" as="geometry" />
        </mxCell>
        <mxCell id="Vl9ZQNTeKKNEjcf7K2NZ-41" value="C_CLIENTE" style="rounded=0;whiteSpace=wrap;html=1;" vertex="1" parent="1">
          <mxGeometry x="546" y="505" width="148" height="80" as="geometry" />
        </mxCell>
        <mxCell id="Vl9ZQNTeKKNEjcf7K2NZ-42" value="" style="rounded=0;whiteSpace=wrap;html=1;" vertex="1" parent="1">
          <mxGeometry x="530" y="519" width="51" height="16" as="geometry" />
        </mxCell>
        <mxCell id="Vl9ZQNTeKKNEjcf7K2NZ-43" value="" style="rounded=0;whiteSpace=wrap;html=1;" vertex="1" parent="1">
          <mxGeometry x="530" y="555" width="51" height="16" as="geometry" />
        </mxCell>
        <mxCell id="Vl9ZQNTeKKNEjcf7K2NZ-46" style="edgeStyle=orthogonalEdgeStyle;rounded=0;orthogonalLoop=1;jettySize=auto;html=1;entryX=0.5;entryY=1;entryDx=0;entryDy=0;" edge="1" parent="1" source="Vl9ZQNTeKKNEjcf7K2NZ-47" target="Vl9ZQNTeKKNEjcf7K2NZ-13">
          <mxGeometry relative="1" as="geometry">
            <mxPoint x="267" y="291" as="targetPoint" />
          </mxGeometry>
        </mxCell>
        <mxCell id="Vl9ZQNTeKKNEjcf7K2NZ-47" value="EX_ITEM" style="rounded=0;whiteSpace=wrap;html=1;" vertex="1" parent="1">
          <mxGeometry x="296" y="425" width="145" height="80" as="geometry" />
        </mxCell>
        <mxCell id="Vl9ZQNTeKKNEjcf7K2NZ-48" value="" style="rounded=0;whiteSpace=wrap;html=1;" vertex="1" parent="1">
          <mxGeometry x="280" y="439" width="51" height="16" as="geometry" />
        </mxCell>
        <mxCell id="Vl9ZQNTeKKNEjcf7K2NZ-49" value="" style="rounded=0;whiteSpace=wrap;html=1;" vertex="1" parent="1">
          <mxGeometry x="280" y="475" width="51" height="16" as="geometry" />
        </mxCell>
        <mxCell id="Vl9ZQNTeKKNEjcf7K2NZ-50" style="edgeStyle=orthogonalEdgeStyle;rounded=0;orthogonalLoop=1;jettySize=auto;html=1;entryX=0;entryY=1;entryDx=0;entryDy=0;" edge="1" parent="1" source="Vl9ZQNTeKKNEjcf7K2NZ-51" target="Vl9ZQNTeKKNEjcf7K2NZ-13">
          <mxGeometry relative="1" as="geometry">
            <mxPoint x="253" y="285" as="targetPoint" />
          </mxGeometry>
        </mxCell>
        <mxCell id="Vl9ZQNTeKKNEjcf7K2NZ-51" value="EX_CLIENTE" style="rounded=0;whiteSpace=wrap;html=1;" vertex="1" parent="1">
          <mxGeometry x="76" y="425" width="148" height="80" as="geometry" />
        </mxCell>
        <mxCell id="Vl9ZQNTeKKNEjcf7K2NZ-52" value="" style="rounded=0;whiteSpace=wrap;html=1;" vertex="1" parent="1">
          <mxGeometry x="60" y="439" width="51" height="16" as="geometry" />
        </mxCell>
        <mxCell id="Vl9ZQNTeKKNEjcf7K2NZ-53" value="" style="rounded=0;whiteSpace=wrap;html=1;" vertex="1" parent="1">
          <mxGeometry x="60" y="475" width="51" height="16" as="geometry" />
        </mxCell>
        <mxCell id="Vl9ZQNTeKKNEjcf7K2NZ-62" style="edgeStyle=orthogonalEdgeStyle;rounded=0;orthogonalLoop=1;jettySize=auto;html=1;entryX=1;entryY=0.5;entryDx=0;entryDy=0;" edge="1" parent="1" source="Vl9ZQNTeKKNEjcf7K2NZ-54" target="Vl9ZQNTeKKNEjcf7K2NZ-13">
          <mxGeometry relative="1" as="geometry" />
        </mxCell>
        <mxCell id="Vl9ZQNTeKKNEjcf7K2NZ-54" value="DEVOLUÃÃO_ITEM" style="rounded=0;whiteSpace=wrap;html=1;" vertex="1" parent="1">
          <mxGeometry x="612" y="130" width="145" height="80" as="geometry" />
        </mxCell>
        <mxCell id="Vl9ZQNTeKKNEjcf7K2NZ-55" value="" style="rounded=0;whiteSpace=wrap;html=1;" vertex="1" parent="1">
          <mxGeometry x="596" y="144" width="51" height="16" as="geometry" />
        </mxCell>
        <mxCell id="Vl9ZQNTeKKNEjcf7K2NZ-56" value="" style="rounded=0;whiteSpace=wrap;html=1;" vertex="1" parent="1">
          <mxGeometry x="596" y="180" width="51" height="16" as="geometry" />
        </mxCell>
        <mxCell id="Vl9ZQNTeKKNEjcf7K2NZ-60" style="edgeStyle=orthogonalEdgeStyle;rounded=0;orthogonalLoop=1;jettySize=auto;html=1;entryX=1;entryY=0.5;entryDx=0;entryDy=0;" edge="1" parent="1" source="Vl9ZQNTeKKNEjcf7K2NZ-57" target="Vl9ZQNTeKKNEjcf7K2NZ-13">
          <mxGeometry relative="1" as="geometry" />
        </mxCell>
        <mxCell id="Vl9ZQNTeKKNEjcf7K2NZ-57" value="EMPRESTIMO_ITEM" style="rounded=0;whiteSpace=wrap;html=1;" vertex="1" parent="1">
          <mxGeometry x="416" y="70" width="148" height="80" as="geometry" />
        </mxCell>
        <mxCell id="Vl9ZQNTeKKNEjcf7K2NZ-58" value="" style="rounded=0;whiteSpace=wrap;html=1;" vertex="1" parent="1">
          <mxGeometry x="400" y="84" width="51" height="16" as="geometry" />
        </mxCell>
        <mxCell id="Vl9ZQNTeKKNEjcf7K2NZ-59" value="" style="rounded=0;whiteSpace=wrap;html=1;" vertex="1" parent="1">
          <mxGeometry x="400" y="120" width="51" height="16" as="geometry" />
        </mxCell>
        <mxCell id="Vl9ZQNTeKKNEjcf7K2NZ-66" style="edgeStyle=orthogonalEdgeStyle;rounded=0;orthogonalLoop=1;jettySize=auto;html=1;entryX=0;entryY=0.5;entryDx=0;entryDy=0;" edge="1" parent="1" source="Vl9ZQNTeKKNEjcf7K2NZ-63" target="Vl9ZQNTeKKNEjcf7K2NZ-13">
          <mxGeometry relative="1" as="geometry" />
        </mxCell>
        <mxCell id="Vl9ZQNTeKKNEjcf7K2NZ-63" value="CON_HISTÃRICO" style="rounded=0;whiteSpace=wrap;html=1;" vertex="1" parent="1">
          <mxGeometry x="66" y="50" width="145" height="80" as="geometry" />
        </mxCell>
        <mxCell id="Vl9ZQNTeKKNEjcf7K2NZ-64" value="" style="rounded=0;whiteSpace=wrap;html=1;" vertex="1" parent="1">
          <mxGeometry x="50" y="64" width="51" height="16" as="geometry" />
        </mxCell>
        <mxCell id="Vl9ZQNTeKKNEjcf7K2NZ-65" value="" style="rounded=0;whiteSpace=wrap;html=1;" vertex="1" parent="1">
          <mxGeometry x="50" y="100" width="51" height="16" as="geometry" />
        </mxCell>
        <mxCell id="Vl9ZQNTeKKNEjcf7K2NZ-71" value="" style="ellipse;whiteSpace=wrap;html=1;aspect=fixed;" vertex="1" parent="1">
          <mxGeometry x="294" y="40" width="40" height="40" as="geometry" />
        </mxCell>
        <mxCell id="Vl9ZQNTeKKNEjcf7K2NZ-72" value="ATUALIZAR BANCO DE DADOS" style="text;html=1;align=center;verticalAlign=middle;resizable=0;points=[];autosize=1;strokeColor=none;fillColor=none;" vertex="1" parent="1">
          <mxGeometry x="214" y="10" width="200" height="30" as="geometry" />
        </mxCell>
        <mxCell id="Vl9ZQNTeKKNEjcf7K2NZ-73" value="" style="endArrow=none;html=1;rounded=0;entryX=0.5;entryY=1;entryDx=0;entryDy=0;" edge="1" parent="1" target="Vl9ZQNTeKKNEjcf7K2NZ-71">
          <mxGeometry width="50" height="50" relative="1" as="geometry">
            <mxPoint x="410" y="110" as="sourcePoint" />
            <mxPoint x="540" y="330" as="targetPoint" />
            <Array as="points">
              <mxPoint x="314" y="100" />
            </Array>
          </mxGeometry>
        </mxCell>
        <mxCell id="Vl9ZQNTeKKNEjcf7K2NZ-74" value="" style="endArrow=none;html=1;rounded=0;entryX=0.5;entryY=0;entryDx=0;entryDy=0;exitX=1;exitY=0.5;exitDx=0;exitDy=0;" edge="1" parent="1" source="Vl9ZQNTeKKNEjcf7K2NZ-71" target="Vl9ZQNTeKKNEjcf7K2NZ-54">
          <mxGeometry width="50" height="50" relative="1" as="geometry">
            <mxPoint x="490" y="490" as="sourcePoint" />
            <mxPoint x="540" y="440" as="targetPoint" />
            <Array as="points">
              <mxPoint x="685" y="60" />
            </Array>
          </mxGeometry>
        </mxCell>
        <mxCell id="Vl9ZQNTeKKNEjcf7K2NZ-75" value="" style="endArrow=none;html=1;rounded=0;entryX=0;entryY=1;entryDx=0;entryDy=0;exitX=0.5;exitY=0;exitDx=0;exitDy=0;" edge="1" parent="1" source="Vl9ZQNTeKKNEjcf7K2NZ-47" target="Vl9ZQNTeKKNEjcf7K2NZ-71">
          <mxGeometry width="50" height="50" relative="1" as="geometry">
            <mxPoint x="490" y="490" as="sourcePoint" />
            <mxPoint x="540" y="440" as="targetPoint" />
            <Array as="points">
              <mxPoint x="340" y="190" />
              <mxPoint x="294" y="190" />
            </Array>
          </mxGeometry>
        </mxCell>
        <mxCell id="Vl9ZQNTeKKNEjcf7K2NZ-76" value="" style="endArrow=none;html=1;rounded=0;exitX=0.5;exitY=0;exitDx=0;exitDy=0;entryX=0;entryY=1;entryDx=0;entryDy=0;" edge="1" parent="1" source="Vl9ZQNTeKKNEjcf7K2NZ-51" target="Vl9ZQNTeKKNEjcf7K2NZ-71">
          <mxGeometry width="50" height="50" relative="1" as="geometry">
            <mxPoint x="430" y="420" as="sourcePoint" />
            <mxPoint x="480" y="370" as="targetPoint" />
          </mxGeometry>
        </mxCell>
      </root>
    </mxGraphModel>
  </diagram>
</mxfile>
